<?xml version="1.0" encoding="UTF-8" standalone="no"?>
<svg width="25px" height="25px" viewBox="0 0 25 25" version="1.1" xmlns="http://www.w3.org/2000/svg" xmlns:xlink="http://www.w3.org/1999/xlink">
    <!-- Generator: Sketch 3.6.1 (26313) - http://www.bohemiancoding.com/sketch -->
    <title>Shape</title>
    <desc>Created with Sketch.</desc>
    <defs></defs>
    <g id="Page-1" stroke="none" stroke-width="1" fill="none" fill-rule="evenodd">
        <g id="Website" transform="translate(-50.000000, -376.000000)" fill="#000000">
            <g id="Help" transform="translate(29.000000, 365.000000)">
                <path d="M33.5,11 C40.39325,11 46,16.6075 46,23.5 C46,30.39375 40.39325,36 33.5,36 C26.6095,36 21,30.39375 21,23.5 C21,16.6075 26.6095,11 33.5,11 L33.5,11 Z M34.47275,30.4855 C34.77225,30.1875 34.9245,29.8235 34.9245,29.4025 C34.9245,28.98175 34.773,28.61775 34.4745,28.32075 C34.1765,28.02125 33.8125,27.8695 33.3915,27.8695 C32.97075,27.8695 32.6065,28.021 32.30875,28.32025 C32.01075,28.61975 31.859,28.984 31.859,29.4025 C31.859,29.82125 32.0105,30.1855 32.30875,30.48425 C32.6065,30.78325 32.97125,30.9345 33.3915,30.9345 C33.81175,30.9345 34.17625,30.7835 34.47275,30.4855 L34.47275,30.4855 Z M34.25125,26.943 C34.51725,26.726 34.65225,26.3955 34.65225,25.961 C34.65225,25.71325 34.7235,25.47525 34.86825,25.23475 C35.15375,24.772 35.6385,24.2835 36.307,23.78525 C37.62175,22.82 38.288,21.67775 38.288,20.3915 C38.288,19.166 37.83675,18.166 36.95,17.4225 C36.107,16.70425 34.9585,16.34025 33.53675,16.34025 C32.20325,16.34025 30.986,16.67325 29.92325,17.3275 C29.36975,17.659 29.25325,18.10925 29.25325,18.4275 C29.25325,18.71875 29.3685,18.98825 29.58725,19.20775 C29.805,19.427 30.07175,19.5425 30.3585,19.5425 C30.61725,19.5425 30.86375,19.471 31.1005,19.32425 C31.68325,18.94025 32.45075,18.745 33.382,18.745 C35.53675,18.745 35.786,19.73975 35.786,20.488 C35.786,20.735 35.70725,20.9655 35.5445,21.19425 C35.41925,21.3715 35.0735,21.73975 34.14425,22.48475 C32.84725,23.489 32.1895,24.70775 32.1895,26.10675 C32.1895,26.41825 32.316,26.6995 32.55425,26.91775 C32.78725,27.13175 33.07175,27.241 33.4015,27.241 C33.7225,27.24125 34.00825,27.1405 34.25125,26.943 L34.25125,26.943 Z" id="Shape"></path>
            </g>
        </g>
    </g>
</svg>