<?xml version="1.0" encoding="UTF-8" standalone="no"?>
<svg width="19px" height="16px" viewBox="0 0 19 16" version="1.1" xmlns="http://www.w3.org/2000/svg" xmlns:xlink="http://www.w3.org/1999/xlink">
    <!-- Generator: Sketch 3.6.1 (26313) - http://www.bohemiancoding.com/sketch -->
    <title>Shape</title>
    <desc>Created with Sketch.</desc>
    <defs></defs>
    <g id="Page-1" stroke="none" stroke-width="1" fill="none" fill-rule="evenodd">
        <g id="View-Character" transform="translate(-9.000000, -12.000000)" fill="#D91E01">
            <path d="M14.8997159,12.5475452 L9.48579545,18.6800511 C9.16193182,19.0187991 9,19.4801971 9,19.988319 C9,20.496441 9.16193182,20.9519985 9.48579545,21.296587 L14.8997159,27.4524548 C15.5420455,28.1825151 16.5892045,28.1825151 17.2315341,27.4524548 C17.8738636,26.7223946 17.8738636,25.5426173 17.2315341,24.812557 L14.6352273,21.8689542 L26.3482955,21.8689542 C27.2605114,21.8689542 28,21.0337653 28,20 C28,18.9662347 27.2605114,18.1310458 26.3482955,18.1310458 L14.6352273,18.1310458 L17.2369318,15.187443 C17.8792614,14.4573827 17.8792614,13.2776054 17.2369318,12.5475452 C16.5892045,11.8174849 15.5474432,11.8174849 14.8997159,12.5475452 L14.8997159,12.5475452 Z" id="Shape"></path>
        </g>
    </g>
</svg>