<?xml version="1.0" encoding="UTF-8" standalone="no"?>
<svg width="20px" height="18px" viewBox="0 0 20 18" version="1.1" xmlns="http://www.w3.org/2000/svg" xmlns:xlink="http://www.w3.org/1999/xlink">
    <!-- Generator: Sketch 3.6.1 (26313) - http://www.bohemiancoding.com/sketch -->
    <title>Shape</title>
    <desc>Created with Sketch.</desc>
    <defs></defs>
    <g id="Page-1" stroke="none" stroke-width="1" fill="none" fill-rule="evenodd">
        <g id="View-Character" transform="translate(-12.000000, -15.000000)" fill="#D1B125">
            <path d="M18.2102273,15.5860444 L12.5113636,22.1497422 C12.1704545,22.5123084 12,23.0061485 12,23.5499977 C12,24.093847 12.1704545,24.5814359 12.5113636,24.9502532 L18.2102273,31.5389556 C18.8863636,32.3203481 19.9886364,32.3203481 20.6647727,31.5389556 C21.3409091,30.757563 21.3409091,29.4948325 20.6647727,28.71344 L17.9318182,25.562865 L30.2613636,25.562865 C31.2215909,25.562865 32,24.6689519 32,23.5625 C32,22.4560481 31.2215909,21.562135 30.2613636,21.562135 L17.9318182,21.562135 L20.6704545,18.41156 C21.3465909,17.6301675 21.3465909,16.367437 20.6704545,15.5860444 C19.9886364,14.8046519 18.8920455,14.8046519 18.2102273,15.5860444 L18.2102273,15.5860444 Z" id="Shape"></path>
        </g>
    </g>
</svg>