<?xml version="1.0" encoding="UTF-8" standalone="no"?>
<svg width="28px" height="28px" viewBox="0 0 28 28" version="1.1" xmlns="http://www.w3.org/2000/svg" xmlns:xlink="http://www.w3.org/1999/xlink">
    <!-- Generator: Sketch 3.6.1 (26313) - http://www.bohemiancoding.com/sketch -->
    <title>Shape</title>
    <desc>Created with Sketch.</desc>
    <defs></defs>
    <g id="Page-1" stroke="none" stroke-width="1" fill="none" fill-rule="evenodd">
        <g id="Website" transform="translate(-49.000000, -250.000000)" fill="#000000">
            <g id="Group-2-Copy-2" transform="translate(30.000000, 240.000000)">
                <path d="M33.0001785,10 C25.2806074,10 19,16.2802504 19,23.999643 C19,31.7195711 25.2806074,37.9998215 33.0001785,37.9998215 C40.7197496,37.9998215 47,31.7192141 47,23.999643 C47,16.2802504 40.7197496,10 33.0001785,10 L33.0001785,10 Z M32.9453829,15.9288091 C35.3874447,15.9288091 37.3666892,17.9085891 37.3666892,20.3501154 C37.3666892,22.7921772 35.3869092,24.7714217 32.9453829,24.7714217 C30.5031426,24.7714217 28.5240766,22.7916417 28.5240766,20.3501154 C28.5238982,17.9085891 30.5031426,15.9288091 32.9453829,15.9288091 L32.9453829,15.9288091 Z M40.8311256,33.8241136 C38.6817828,35.5424098 35.9598531,36.5721025 33.0001785,36.5721025 C30.0440736,36.5721025 27.3248212,35.5458011 25.1763708,33.8316101 C25.3755626,30.2884608 27.7085687,26.7094356 30.5627574,26.7094356 L35.4411693,26.7094356 C38.3012481,26.7094356 40.6401443,30.1585221 40.8309471,33.7072045 C40.8311256,33.7075615 40.8311256,33.7079185 40.8311256,33.7082754 C40.8311256,33.7086324 40.8311256,33.7727093 40.8311256,33.8241136 L40.8311256,33.8241136 Z" id="Shape"></path>
            </g>
        </g>
    </g>
</svg>